<svg id="Layer_3" data-name="Layer 3" xmlns="http://www.w3.org/2000/svg" viewBox="0 0 1154.55 1294.51"><defs><style>.cls-1{fill:none;stroke:#fff;stroke-miterlimit:10;stroke-width:29px;}</style></defs><title>africaicon</title><path class="cls-1" d="M2073.91,480.14s24.07-29.91,116-21.8c0,0,43.41,8.54,59.63-1.49s38,11.42,38,11.42,21,49.73,0,49.73c-22,0-5.54,21.24,14.58,21.24s44.37,0,82.21,37.84,52.66,16.22,52.66,0-29.07-37,27.68-51c0,0,27.36,23.93,46.27,23.93s59.62-2.7,62.33,10.81,16.3-10.81,48.73,5.41,48.69-13.51,48.69-13.51l10.83,45.35s-5.4,14.11,0,38.43S2641,614.92,2641,614.92s21.62,82.35,59.46,104.69,21.62,68.29,21.62,68.29,30,22.11,35.41,44.84,57,55.16,57,55.16V924l64.47-.12,62.08-25.18s9.42,63.76-28.42,103.5c0,0-26.37,48.28-61.51,77.8s-88.86,70.05-94.27,118.7,8.27,70.27,8.27,70.27l2.78,32.43,5.45,54.05-24.3,27L2722,1396l-32.43,32.43s-18.92,16.22-10.81,32.43,10.81,45.72,10.81,45.72l-13.51,34.91H2644l-3,19.21-8.11,46-40.54,47.18-48.65,52.59H2495l-78.16,12-32.34-44.14V1631l-27.16-45.81-24.4-75.68s12.12-29.73-12.2-62.16-29.07-83.78.66-132.43,11.14-32.43,11.14-32.43l-21.46-54.05-26.68-56.76-42.9-35.14V1110l13.14-49.14s5.33-37.84-32.51-35.14c0,0-25.71,12.4-50-23.53s-98.84,28.93-98.84,28.93l-25.58-2.7s-39.3-8.11-55.51,8.11-102.62-64.79-102.62-64.79-16.18-30.8-48.61-47.87-18.9-52.21-18.9-52.21l8.12-38.95s18.92-12.4,10.82-34l-8.11-21.62-13.6-24.32,24.41-33.15,32.43-53.34,13.51-32.43,24.32-18.92a48.92,48.92,0,0,0,24.32-37.84c2.7-27,35.14-54.05,35.14-54.05s29.73-2.7,29.73-24.32,21.62-21.62,21.62-21.62L2048,490.59Z" transform="translate(-1802.05 -439.68)"/><path class="cls-1" d="M2908.29,1301.41,2921.5,1323v55l-6.48-13-3.65,38s-1.61,4-4.15,42c0,0-7.88,4-21.88,64l-11.67,16s-22.84,0-26.84,12-24.92-23-24.92-23-1.21-19-14.21-28,10.79-50,10.79-50v-42l9.25-13,29.63-9,18.31-16,13.66-11,5.2-24Z" transform="translate(-1802.05 -439.68)"/></svg>